<svg width="14" height="14" viewBox="0 0 14 14" fill="none" xmlns="http://www.w3.org/2000/svg">
<mask id="path-1-inside-1_202_148" fill="white">
<path d="M13.3966 9.84326C12.846 11.0818 11.9478 12.1338 10.811 12.8717C9.67411 13.6095 8.34749 14.0015 6.99216 14C5.63683 13.9985 4.31109 13.6035 3.17589 12.8631C2.04068 12.1227 1.14483 11.0686 0.597097 9.82893C0.0493647 8.58921 -0.126694 7.21714 0.0902953 5.87929C0.307284 4.54145 0.907989 3.29537 1.81948 2.29232C2.73097 1.28928 3.91405 0.572415 5.22509 0.22876C6.53612 -0.114895 7.91873 -0.0705619 9.20506 0.356378L8.60332 2.16937C7.66802 1.85893 6.66271 1.8267 5.70945 2.07657C4.75618 2.32645 3.89595 2.84769 3.2332 3.57701C2.57045 4.30633 2.13367 5.21237 1.9759 6.18513C1.81812 7.15788 1.94613 8.15553 2.3444 9.05694C2.74266 9.95835 3.39404 10.7248 4.21945 11.2631C5.04487 11.8015 6.00883 12.0887 6.9943 12.0898C7.97977 12.0909 8.94437 11.8059 9.77099 11.2693C10.5976 10.7328 11.2507 9.96788 11.651 9.06736L13.3966 9.84326Z"/>
</mask>
<path d="M13.3966 9.84326C12.846 11.0818 11.9478 12.1338 10.811 12.8717C9.67411 13.6095 8.34749 14.0015 6.99216 14C5.63683 13.9985 4.31109 13.6035 3.17589 12.8631C2.04068 12.1227 1.14483 11.0686 0.597097 9.82893C0.0493647 8.58921 -0.126694 7.21714 0.0902953 5.87929C0.307284 4.54145 0.907989 3.29537 1.81948 2.29232C2.73097 1.28928 3.91405 0.572415 5.22509 0.22876C6.53612 -0.114895 7.91873 -0.0705619 9.20506 0.356378L8.60332 2.16937C7.66802 1.85893 6.66271 1.8267 5.70945 2.07657C4.75618 2.32645 3.89595 2.84769 3.2332 3.57701C2.57045 4.30633 2.13367 5.21237 1.9759 6.18513C1.81812 7.15788 1.94613 8.15553 2.3444 9.05694C2.74266 9.95835 3.39404 10.7248 4.21945 11.2631C5.04487 11.8015 6.00883 12.0887 6.9943 12.0898C7.97977 12.0909 8.94437 11.8059 9.77099 11.2693C10.5976 10.7328 11.2507 9.96788 11.651 9.06736L13.3966 9.84326Z" stroke="#D9D9D9" stroke-width="3" mask="url(#path-1-inside-1_202_148)"/>
</svg>
